<?xml version="1.0" standalone="no"?>
<!DOCTYPE svg PUBLIC "-//W3C//DTD SVG 20010904//EN"
 "http://www.w3.org/TR/2001/REC-SVG-20010904/DTD/svg10.dtd">
<svg version="1.0" xmlns="http://www.w3.org/2000/svg"
 width="15.000000pt" height="15.000000pt" viewBox="0 0 30.000000 1.000000"
 preserveAspectRatio="xMidYMid meet">

<g transform="translate(0.000000,15.000000) scale(0.100000,-0.100000)"
fill="#000000" stroke="none" >
<path d="M124 272 c-18 -12 -34 -49 -34 -79 0 -61 59 -99 106 -68 23 15 24 15
24 -9 0 -51 -63 -74 -103 -39 -16 14 -19 15 -15 3 7 -22 53 -42 82 -34 44 11
51 30 51 136 0 90 -6 118 -18 86 -4 -10 -7 -10 -18 0 -14 13 -58 16 -75 4z
m80 -24 c34 -48 8 -118 -43 -118 -37 0 -51 17 -51 64 0 68 60 103 94 54z"/>
</g>
</svg>
